<svg xmlns="http://www.w3.org/2000/svg" width="25" height="24" fill="none">
  <path fill="#ffffff"
    d="M12.5.75c-3.053 0-3.437.014-4.636.068-1.2.056-2.017.244-2.733.523-.75.282-1.43.725-1.992 1.298A5.523 5.523 0 0 0 1.84 4.63c-.279.715-.469 1.533-.524 2.728-.053 1.203-.067 1.585-.067 4.642 0 3.055.014 3.437.067 4.637.057 1.198.245 2.015.524 2.73.288.74.672 1.368 1.298 1.993a5.49 5.49 0 0 0 1.99 1.298c.718.279 1.534.469 2.732.524 1.2.053 1.583.067 4.639.067s3.437-.014 4.638-.067c1.196-.057 2.016-.245 2.732-.524a5.507 5.507 0 0 0 1.991-1.298 5.525 5.525 0 0 0 1.298-1.992c.277-.716.467-1.533.524-2.731.053-1.2.067-1.582.067-4.638s-.014-3.438-.067-4.64c-.057-1.196-.247-2.014-.524-2.729a5.521 5.521 0 0 0-1.298-1.992A5.5 5.5 0 0 0 19.87 1.34c-.717-.279-1.536-.469-2.733-.523-1.2-.054-1.582-.068-4.639-.068h.004-.001Zm-1.008 2.028h1.01c3.003 0 3.359.01 4.544.064 1.097.05 1.694.234 2.09.387.525.204.9.449 1.294.843.394.393.637.767.84 1.293.155.395.338.992.387 2.089.055 1.185.067 1.54.067 4.543 0 3.002-.012 3.36-.067 4.545-.049 1.097-.233 1.692-.386 2.088-.18.489-.469.93-.843 1.293a3.476 3.476 0 0 1-1.293.84c-.394.155-.99.338-2.089.389-1.185.053-1.54.066-4.545.066-3.003 0-3.36-.013-4.546-.066-1.097-.05-1.692-.234-2.088-.388a3.486 3.486 0 0 1-1.294-.841 3.488 3.488 0 0 1-.844-1.294c-.153-.395-.337-.991-.387-2.088-.053-1.186-.064-1.542-.064-4.547 0-3.003.011-3.358.064-4.543.051-1.097.234-1.693.389-2.09.204-.524.448-.9.842-1.294a3.476 3.476 0 0 1 1.294-.84c.396-.155.991-.338 2.088-.389 1.038-.048 1.44-.062 3.537-.063v.003Zm7.014 1.867a1.35 1.35 0 1 0 0 2.7 1.35 1.35 0 0 0 0-2.7Zm-6.005 1.578a5.779 5.779 0 1 0-.18 11.556 5.779 5.779 0 0 0 .18-11.556Zm0 2.027a3.75 3.75 0 1 1 0 7.5 3.75 3.75 0 0 1 0-7.5Z" />
</svg>