<svg xmlns="http://www.w3.org/2000/svg" width="48" height="48" fill="none">
  <path stroke="#fff" stroke-linejoin="round" stroke-width="4" d="M44 5H4v10h40V5Z" />
  <path stroke="#fff" stroke-linejoin="round" stroke-width="4" d="M44 5H4v10h40V5Z" />
  <path stroke="#fff" stroke-linecap="round" stroke-width="4" d="M44 31v11M4 15v28M4 43h40" />
  <path fill="#528BEB"
    d="M28 25c.8-4.2 1.9-5.3 6.1-6.1.5-.1.8-.5.8-1s-.3-.9-.8-1c-4.2-.8-5.3-1.9-6.1-6.1-.1-.5-.5-.8-1-.8s-.9.3-1 .8c-.8 4.2-1.9 5.3-6.1 6.1-.4.1-.8.5-.8 1s.3.9.8 1c4.2.8 5.3 1.9 6.1 6.1.1.5.5.8 1 .8s.9-.4 1-.8ZM38 32c-2.8-.6-3.4-1.2-4-4-.1-.5-.5-.8-1-.8s-.9.3-1 .8c-.6 2.8-1.2 3.4-4 4-.5.1-.8.5-.8 1s.3.9.8 1c2.8.6 3.4 1.2 4 4 .1.5.5.8 1 .8s.9-.3 1-.8c.6-2.8 1.2-3.4 4-4 .5-.1.8-.5.8-1s-.4-.9-.8-1ZM45.2 22c-2.2-.4-2.7-.9-3.1-3.1-.1-.5-.5-.8-1-.8s-.9.3-1 .8c-.4 2.2-.9 2.7-3.1 3.1-.5.1-.8.5-.8 1s.3.9.8 1c2.2.4 2.7.9 3.1 3.1.1.5.5.8 1 .8s.9-.3 1-.8c.4-2.2.9-2.7 3.1-3.1.5-.1.8-.5.8-1s-.3-.9-.8-1ZM21.7 30.3c-.3-.3-.7-.4-1.1-.2-.1 0-.2.1-.3.2-.1.1-.2.2-.2.3-.1.1-.1.3-.1.4 0 .1 0 .3.1.4.1.1.1.2.2.3.1.1.2.2.3.2.1.1.3.1.4.1.1 0 .3 0 .4-.1.1-.1.2-.1.3-.2.1-.1.2-.2.2-.3.1-.1.1-.3.1-.4 0-.1 0-.3-.1-.4 0-.1-.1-.2-.2-.3ZM44 15c.3 0 .5-.1.7-.3.2-.2.3-.4.3-.7 0-.3-.1-.5-.3-.7-.1-.1-.2-.2-.3-.2-.2-.1-.5-.1-.8 0-.1 0-.2.1-.3.2-.2.2-.3.4-.3.7 0 .3.1.5.3.7.2.2.4.3.7.3Z" />
</svg>