<svg xmlns="http://www.w3.org/2000/svg" width="48" height="48" fill="none">
  <path fill="#fff"
    d="M43.14 13.575 38.798 9.24a2.366 2.366 0 0 0-3.345 3.345l.202.202-.84.84A18.76 18.76 0 0 0 27 9.547V7.5h3.75a3 3 0 0 0 0-6h-16.5a3 3 0 0 0 0 6H18v2.047a18.77 18.77 0 1 0 20.43 8.333l1.163-1.162s.15.157.202.202a2.365 2.365 0 1 0 3.345-3.345ZM22.5 41.25A13.5 13.5 0 1 1 36 27.75a13.516 13.516 0 0 1-13.5 13.5Z" />
  <path stroke="#528BEB" stroke-linecap="round" stroke-linejoin="round" stroke-width="4"
    d="m29 24-8.938 9L16 28.91" />
</svg>